<svg xmlns="http://www.w3.org/2000/svg"  viewBox="0 0 40 40" width="50px" height="50px"><path fill="#b0c1d4" d="M7,27.5c-3.584,0-6.5-2.916-6.5-6.5c0-2.497,1.464-4.802,3.73-5.873l0.271-0.128l0.014-0.301 C4.676,11.222,7.524,8.5,11,8.5c0.299,0,0.61,0.026,0.98,0.082l0.514,0.078l0.059-0.516C12.982,4.356,16.185,1.5,20,1.5 c2.698,0,5.2,1.464,6.53,3.82l0.166,0.293L27.03,5.57C27.349,5.529,27.67,5.5,28,5.5c4.136,0,7.5,3.364,7.5,7.5v0.289l0.246,0.221 C38.062,14.85,39.5,17.336,39.5,20c0,4.136-3.364,7.5-7.5,7.5H7z"/><path fill="#788b9c" d="M20,2c2.517,0,4.853,1.366,6.095,3.566l0.331,0.586l0.668-0.086C27.443,6.021,27.73,6,28,6 c3.86,0,7,3.14,7.001,6.967l-0.004,0.069l0,0.032l-0.006,0.583l0.505,0.292C37.657,15.193,39,17.514,39,20c0,3.86-3.14,7-7,7H7 c-3.308,0-6-2.692-6-6c0-2.304,1.352-4.432,3.444-5.421l0.544-0.257l0.028-0.601C5.163,11.513,7.792,9,11,9 c0.273,0,0.561,0.024,0.906,0.077l1.026,0.156l0.117-1.031C13.451,4.666,16.439,2,20,2 M20,1c-4.109,0-7.491,3.1-7.944,7.088 C11.71,8.036,11.36,8,11,8c-3.756,0-6.813,2.961-6.984,6.675C1.645,15.796,0,18.203,0,21c0,3.866,3.134,7,7,7h25 c4.418,0,8-3.582,8-8c0-2.961-1.613-5.54-4.004-6.923C35.996,13.051,36,13.026,36,13c0-4.418-3.582-8-8-8 c-0.351,0-0.695,0.03-1.034,0.074C25.593,2.644,22.99,1,20,1L20,1z"/><path fill="#e1ebf2" d="M31.998,26L31,26.002H7c-2.757,0-5-2.243-5-5C2,21.001,2,21.001,2,21H1c0,0.001,0,0.001,0,0.002	c0,3.308,2.692,6,6,6h24L32,27c3.86,0,7-3.14,7-7h-1C38,23.308,35.308,26,31.998,26z"/><g><path fill="#ffeea3" d="M19.77 29.5L14.75 29.5 19.333 18.5 26.146 18.5 21.646 26.5 25.922 26.5 15.771 38.497z"/><path fill="#c29653" d="M25.29,19l-3.662,6.51L20.79,27h1.71h2.344l-7.196,8.504l2.266-5.098L20.539,29H19h-3.5l4.167-10 H25.29 M27,18h-8l-5,12h5l-4,9h1l11-13h-4.5L27,18L27,18z"/></g></svg>