<svg xmlns="http://www.w3.org/2000/svg"  viewBox="0 0 40 40" width="50px" height="50px"><path fill="#ffeea3" d="M8.628,17.862l-0.203-0.046c-0.161-0.037-0.321-0.074-0.477-0.123L7.75,17.632l-2.278,1.211 l-0.09-2.59l-0.152-0.142c-0.118-0.109-0.231-0.223-0.341-0.341l-0.142-0.152l-2.59-0.09l1.211-2.279l-0.062-0.199 c-0.048-0.156-0.085-0.316-0.122-0.477l-0.046-0.203L0.943,11l2.195-1.372l0.046-0.203c0.037-0.161,0.074-0.321,0.122-0.477 L3.368,8.75L2.157,6.472l2.59-0.09l0.142-0.152c0.109-0.118,0.223-0.231,0.341-0.341l0.152-0.142l0.09-2.59L7.75,4.368 l0.199-0.062c0.156-0.048,0.316-0.085,0.477-0.122l0.203-0.046L10,1.943l1.372,2.195l0.203,0.046 c0.161,0.037,0.321,0.074,0.477,0.122l0.199,0.062l2.279-1.211l0.09,2.59l0.152,0.142c0.118,0.109,0.231,0.223,0.341,0.341 l0.142,0.152l2.59,0.09L16.632,8.75l0.062,0.199c0.048,0.156,0.085,0.316,0.122,0.477l0.046,0.203L19.057,11l-2.195,1.372 l-0.046,0.203c-0.037,0.161-0.074,0.321-0.122,0.477l-0.062,0.199l1.211,2.279l-2.59,0.09l-0.142,0.152 c-0.109,0.118-0.223,0.231-0.341,0.341l-0.152,0.142l-0.09,2.59l-2.278-1.211l-0.199,0.061c-0.156,0.048-0.316,0.085-0.477,0.123 l-0.203,0.046L10,20.057L8.628,17.862z"/><path fill="#c29653" d="M10,2.887l0.838,1.34l0.22,0.352l0.404,0.093c0.149,0.034,0.299,0.069,0.444,0.113l0.396,0.121 l0.366-0.195l1.389-0.738l0.055,1.584l0.014,0.413l0.302,0.282c0.11,0.102,0.215,0.208,0.318,0.318l0.282,0.302l0.413,0.014 l1.584,0.055l-0.738,1.389l-0.195,0.366l0.121,0.396c0.045,0.145,0.079,0.295,0.114,0.444l0.093,0.404l0.352,0.22L18.113,11 l-1.34,0.838l-0.352,0.22l-0.093,0.404c-0.034,0.149-0.069,0.299-0.113,0.444l-0.121,0.396l0.195,0.366l0.738,1.389l-1.584,0.055 l-0.413,0.014l-0.282,0.302c-0.102,0.11-0.208,0.215-0.318,0.318l-0.302,0.282l-0.014,0.413l-0.055,1.584l-1.389-0.738 l-0.366-0.195l-0.396,0.121c-0.145,0.045-0.295,0.079-0.444,0.114l-0.404,0.093l-0.22,0.352L10,19.113l-0.838-1.34l-0.22-0.352 l-0.404-0.093c-0.15-0.034-0.299-0.069-0.444-0.114l-0.396-0.121l-0.366,0.195l-1.389,0.738l-0.055-1.584l-0.014-0.413 l-0.302-0.282c-0.11-0.102-0.215-0.208-0.318-0.318l-0.282-0.302l-0.413-0.014l-1.584-0.055l0.738-1.389l0.195-0.366l-0.121-0.396 c-0.044-0.145-0.079-0.295-0.113-0.444l-0.093-0.404l-0.352-0.22L1.887,11l1.34-0.838l0.352-0.22l0.093-0.404 c0.034-0.15,0.069-0.299,0.114-0.444l0.121-0.396L3.712,8.332L2.974,6.943l1.584-0.055l0.413-0.014l0.282-0.302 c0.102-0.11,0.208-0.215,0.318-0.318l0.302-0.282l0.014-0.413l0.055-1.584l1.389,0.738l0.366,0.195l0.396-0.121 C8.24,4.741,8.389,4.706,8.538,4.672l0.404-0.093l0.22-0.352L10,2.887 M10,1L8.314,3.697c-0.173,0.04-0.345,0.08-0.513,0.132 L5,2.34L4.889,5.522C4.762,5.64,4.64,5.762,4.522,5.889L1.34,6l1.489,2.802c-0.051,0.168-0.092,0.34-0.132,0.513L0,11l2.697,1.686 c0.04,0.173,0.08,0.345,0.132,0.513L1.34,16l3.183,0.111c0.118,0.126,0.24,0.248,0.366,0.366L5,19.66l2.801-1.489 c0.168,0.051,0.34,0.092,0.513,0.132L10,21l1.686-2.697c0.173-0.04,0.345-0.08,0.513-0.132L15,19.66l0.111-3.183 c0.126-0.118,0.248-0.24,0.366-0.366L18.66,16l-1.489-2.802c0.051-0.168,0.092-0.34,0.132-0.513L20,11l-2.697-1.686 c-0.04-0.173-0.08-0.345-0.132-0.513L18.66,6l-3.183-0.111c-0.118-0.126-0.24-0.248-0.366-0.366L15,2.34l-2.802,1.489 c-0.168-0.051-0.34-0.092-0.513-0.132L10,1L10,1z"/><path fill="#f5ce85" d="M10 6A5 5 0 1 0 10 16A5 5 0 1 0 10 6Z"/><path fill="#e1ebf2" d="M8,30.5c-3.033,0-5.5-2.467-5.5-5.5c0-2.33,1.48-4.414,3.683-5.186l0.352-0.123 c0,0-0.034-0.627-0.034-0.691c0-3.584,2.916-6.5,6.5-6.5h0.441l0.123-0.435C14.031,8.322,17.228,5.5,21,5.5 c2.679,0,5.173,1.45,6.509,3.785l0.161,0.281l0.322-0.032C28.214,9.512,28.439,9.5,28.667,9.5c3.768,0,6.833,3.065,6.833,6.833 c0,0.143-0.011,0.284-0.021,0.425l-0.023,0.327l0.286,0.214C38.06,18.514,39.5,20.89,39.5,23.5c0,3.669-2.87,6.733-6.533,6.976 L32.6,30.5H8z"/><path fill="#b0c1d4" d="M21,6c2.5,0,4.828,1.354,6.075,3.533l0.321,0.562l0.644-0.063C28.256,10.011,28.466,10,28.667,10 C32.159,10,35,12.841,35,16.333c0,0.132-0.01,0.261-0.019,0.39l-0.004,0.062l-0.046,0.653l0.58,0.304 C37.663,18.87,39,21.077,39,23.5c0,3.407-2.664,6.252-6.066,6.477L32.687,30H8c-2.757,0-5-2.243-5-5 c0-2.118,1.345-4.012,3.348-4.714l0.704-0.247l-0.036-0.745l-0.008-0.137C7.004,19.105,7,19.053,7,19c0-3.308,2.692-6,5.962-6.001 l0.064,0.004l0.031,0l0.893,0.01l0.11-0.886C14.496,8.634,17.479,6,21,6 M21,5c-4.08,0-7.44,3.057-7.931,7.003 C13.046,12.003,13.023,12,13,12c-3.866,0-7,3.134-7,7c0,0.116,0.012,0.228,0.017,0.342C3.679,20.162,2,22.382,2,25 c0,3.314,2.686,6,6,6h25v-0.025c3.908-0.258,7-3.501,7-7.475c0-2.888-1.634-5.39-4.026-6.644C35.986,16.683,36,16.51,36,16.333 C36,12.283,32.717,9,28.667,9c-0.244,0-0.485,0.013-0.724,0.036C26.565,6.627,23.975,5,21,5L21,5z"/><path fill="#fff" d="M6.679,21.23l0.704-0.247l0.704-0.247l-0.036-0.745l-0.037-0.757l-0.01-0.168L8,19	c0-2.747,2.21-4.984,4.932-5.001l0.031,0.002l0.057,0.002l0.026,0l0.893,0.01l0.893,0.01l0.11-0.886l0.11-0.886	C15.426,9.257,17.983,7,21,7V6c-3.521,0-6.504,2.634-6.939,6.127l-0.11,0.886l-0.893-0.01l-0.031,0l-0.064-0.004	C9.692,13,7,15.692,7,19c0,0.053,0.004,0.105,0.008,0.157l0.008,0.137l0.036,0.745l-0.704,0.247C4.346,20.988,3,22.882,3,25h1	C4,23.307,5.077,21.792,6.679,21.23z"/><path fill="#8bb7f0" d="M11.5,38.5c-1.103,0-2-0.897-2-2c0-1.484,1.95-3.506,3.197-4.599 c0.285,1.25,0.803,3.648,0.803,4.599C13.5,37.603,12.603,38.5,11.5,38.5z"/><path fill="#4e7ab5" d="M12.397,32.852C12.686,34.185,13,35.808,13,36.5c0,0.827-0.673,1.5-1.5,1.5S10,37.327,10,36.5 C10,35.522,11.177,34.031,12.397,32.852 M13,31c0,0-4,3.104-4,5.5c0,1.381,1.119,2.5,2.5,2.5s2.5-1.119,2.5-2.5S13,31,13,31L13,31z"/><g><path fill="#8bb7f0" d="M20.5,31.5c-1.103,0-2-0.897-2-2c0-1.484,1.95-3.506,3.197-4.599 c0.285,1.25,0.803,3.648,0.803,4.599C22.5,30.603,21.603,31.5,20.5,31.5z"/><path fill="#4e7ab5" d="M21.397,25.852C21.686,27.185,22,28.808,22,29.5c0,0.827-0.673,1.5-1.5,1.5S19,30.327,19,29.5 C19,28.522,20.177,27.031,21.397,25.852 M22,24c0,0-4,3.104-4,5.5c0,1.381,1.119,2.5,2.5,2.5s2.5-1.119,2.5-2.5S22,24,22,24L22,24z"/></g><g><path fill="#8bb7f0" d="M27.5,38.5c-1.103,0-2-0.897-2-2c0-1.484,1.95-3.506,3.197-4.599 c0.285,1.25,0.803,3.648,0.803,4.599C29.5,37.603,28.603,38.5,27.5,38.5z"/><path fill="#4e7ab5" d="M28.397,32.852C28.686,34.185,29,35.808,29,36.5c0,0.827-0.673,1.5-1.5,1.5S26,37.327,26,36.5 C26,35.522,27.177,34.031,28.397,32.852 M29,31c0,0-4,3.104-4,5.5c0,1.381,1.119,2.5,2.5,2.5s2.5-1.119,2.5-2.5S29,31,29,31L29,31z"/></g></svg>