<svg xmlns="http://www.w3.org/2000/svg"  viewBox="0 0 40 40" width="50px" height="50px"><path fill="#ffeea3" d="M8.628,17.862l-0.202-0.046c-0.16-0.037-0.32-0.074-0.477-0.123l-0.198-0.061l-2.279,1.211 l-0.091-2.591l-0.152-0.142c-0.118-0.109-0.23-0.223-0.341-0.341l-0.141-0.151l-2.59-0.09l1.211-2.279l-0.062-0.199 c-0.048-0.155-0.086-0.315-0.122-0.476l-0.046-0.203L0.943,11l2.194-1.371l0.047-0.202c0.037-0.161,0.074-0.322,0.122-0.478 L3.368,8.75L2.157,6.472l2.59-0.09L4.888,6.23c0.11-0.118,0.223-0.231,0.341-0.341l0.152-0.142l0.091-2.591l2.279,1.211 l0.198-0.061c0.156-0.048,0.316-0.085,0.477-0.123l0.202-0.046L10,1.943l1.372,2.195l0.202,0.046 c0.16,0.037,0.32,0.074,0.477,0.123l0.198,0.061l2.279-1.211l0.091,2.591l0.152,0.142c0.118,0.109,0.23,0.223,0.341,0.341 l0.141,0.151l2.59,0.09L16.632,8.75l0.062,0.199c0.048,0.156,0.085,0.317,0.122,0.478l0.047,0.202L19.057,11l-2.195,1.372 l-0.046,0.203c-0.036,0.16-0.074,0.32-0.122,0.476l-0.062,0.199l1.211,2.279l-2.59,0.09l-0.141,0.151 c-0.11,0.118-0.223,0.231-0.341,0.341l-0.152,0.142l-0.091,2.591l-2.279-1.211l-0.198,0.061c-0.156,0.048-0.316,0.085-0.477,0.123 l-0.202,0.046L10,20.057L8.628,17.862z"/><path fill="#c29653" d="M10,2.887l0.838,1.34l0.22,0.352l0.404,0.093c0.149,0.034,0.299,0.069,0.444,0.113l0.396,0.121 l0.366-0.195l1.389-0.738l0.055,1.584l0.014,0.413l0.302,0.282c0.11,0.102,0.215,0.208,0.318,0.318l0.282,0.302l0.414,0.014 l1.584,0.055l-0.738,1.389l-0.195,0.366l0.121,0.396c0.044,0.145,0.079,0.295,0.114,0.444l0.093,0.404l0.352,0.22L18.113,11 l-1.34,0.838l-0.352,0.22l-0.093,0.404c-0.034,0.149-0.069,0.299-0.113,0.444l-0.121,0.396l0.195,0.366l0.738,1.389l-1.584,0.055 l-0.414,0.014l-0.282,0.302c-0.102,0.11-0.208,0.215-0.318,0.318l-0.302,0.282l-0.014,0.413l-0.055,1.584l-1.389-0.738 l-0.366-0.195l-0.396,0.121c-0.145,0.045-0.295,0.079-0.444,0.114l-0.404,0.093l-0.22,0.352L10,19.113l-0.838-1.34l-0.22-0.352 l-0.404-0.093c-0.15-0.034-0.299-0.069-0.444-0.114l-0.396-0.121l-0.366,0.195l-1.389,0.738l-0.055-1.584l-0.014-0.413 l-0.302-0.282c-0.11-0.102-0.215-0.208-0.318-0.318l-0.282-0.302l-0.414-0.014l-1.584-0.055l0.738-1.389l0.195-0.366l-0.121-0.396 c-0.044-0.145-0.079-0.295-0.113-0.444l-0.093-0.404l-0.352-0.22L1.887,11l1.34-0.838l0.352-0.22l0.093-0.404 c0.034-0.15,0.069-0.299,0.114-0.444l0.121-0.396L3.712,8.332L2.974,6.943l1.584-0.055l0.414-0.014l0.282-0.302 c0.102-0.11,0.208-0.215,0.318-0.318l0.302-0.282l0.014-0.413l0.055-1.584l1.389,0.738l0.366,0.195l0.396-0.121 C8.24,4.741,8.389,4.706,8.538,4.672l0.404-0.093l0.22-0.352L10,2.887 M10,1L8.314,3.697c-0.173,0.04-0.345,0.08-0.513,0.132 L5,2.34L4.889,5.522C4.762,5.64,4.64,5.762,4.522,5.889L1.34,6l1.489,2.802c-0.051,0.168-0.092,0.34-0.132,0.513L0,11l2.697,1.686 c0.04,0.173,0.08,0.345,0.132,0.513L1.34,16l3.183,0.111c0.118,0.126,0.24,0.248,0.366,0.366L5,19.66l2.801-1.489 c0.168,0.051,0.34,0.092,0.513,0.132L10,21l1.686-2.697c0.173-0.04,0.345-0.08,0.513-0.132L15,19.66l0.111-3.183 c0.126-0.118,0.248-0.24,0.366-0.366L18.66,16l-1.489-2.802c0.051-0.168,0.092-0.34,0.132-0.513L20,11l-2.697-1.686 c-0.04-0.173-0.08-0.345-0.132-0.513L18.66,6l-3.183-0.111c-0.118-0.126-0.24-0.248-0.366-0.366L15,2.34l-2.802,1.489 c-0.168-0.051-0.34-0.092-0.513-0.132L10,1L10,1z"/><path fill="#f5ce85" d="M10 6A5 5 0 1 0 10 16A5 5 0 1 0 10 6Z"/><path fill="#e1ebf2" d="M7,35.5c-3.584,0-6.5-2.916-6.5-6.5c0-2.497,1.464-4.802,3.73-5.873l0.271-0.128l0.014-0.301 C4.676,19.222,7.524,16.5,11,16.5c0.299,0,0.61,0.026,0.98,0.082l0.514,0.078l0.059-0.516C12.982,12.356,16.185,9.5,20,9.5 c2.698,0,5.2,1.464,6.53,3.82l0.166,0.293l0.334-0.043c0.318-0.042,0.64-0.07,0.97-0.07c4.136,0,7.5,3.364,7.5,7.5v0.289 l0.246,0.221C38.062,22.85,39.5,25.336,39.5,28c0,4.136-3.364,7.5-7.5,7.5H7z"/><path fill="#b0c1d4" d="M20,10c2.517,0,4.853,1.366,6.095,3.566l0.331,0.586l0.668-0.086C27.443,14.021,27.73,14,28,14 c3.86,0,7,3.14,7.001,6.967l-0.004,0.069l0,0.032l-0.006,0.583l0.505,0.292C37.657,23.193,39,25.514,39,28c0,3.86-3.14,7-7,7H7 c-3.308,0-6-2.692-6-6c0-2.304,1.352-4.432,3.444-5.421l0.544-0.257l0.028-0.601C5.163,19.513,7.792,17,11,17 c0.273,0,0.561,0.024,0.906,0.077l1.026,0.156l0.117-1.031C13.451,12.666,16.439,10,20,10 M20,9c-4.109,0-7.491,3.1-7.944,7.088 C11.71,16.036,11.36,16,11,16c-3.756,0-6.813,2.961-6.984,6.675C1.645,23.796,0,26.203,0,29c0,3.866,3.134,7,7,7h25 c4.418,0,8-3.582,8-8c0-2.961-1.613-5.54-4.004-6.923C35.996,21.051,36,21.026,36,21c0-4.418-3.582-8-8-8 c-0.351,0-0.695,0.03-1.034,0.074C25.593,10.644,22.99,9,20,9L20,9z"/><path fill="#fff" d="M20,10c-3.561,0-6.549,2.666-6.951,6.201l-0.117,1.031l-1.026-0.156C11.561,17.024,11.273,17,11,17	c-3.208,0-5.837,2.513-5.985,5.721l-0.028,0.601l-0.544,0.257C2.352,24.568,1,26.696,1,29h1c0-1.92,1.127-3.693,2.871-4.517	l0.544-0.257l0.544-0.257l0.028-0.601l0.028-0.601C6.137,20.094,8.327,18,11,18c0.222,0,0.462,0.021,0.756,0.065l1.026,0.156	l1.026,0.156l0.117-1.031l0.117-1.031C14.387,13.284,16.948,11,20,11V10z"/></svg>