<svg xmlns="http://www.w3.org/2000/svg"  viewBox="0 0 40 40" width="50px" height="50px" fill-rule="evenodd" clip-rule="evenodd"><path fill="#676d69" fill-rule="evenodd" d="M19.987,35H19V1h0.985C19.985,1,19.985,34.964,19.987,35z" clip-rule="evenodd"/><path fill="#8bb8f0" fill-rule="evenodd" d="M26.937,22.336c-1.009-0.705-3.914-2.533-6.893-2.551 c-3.016,0-5.926,1.817-6.974,2.546c-0.754-0.778-2.792-2.546-5.736-2.546c-2.507,0-4.658,1.286-5.803,2.132 C2.093,12.279,10.108,4.562,19.88,4.5h0.241c9.747,0.062,17.784,7.788,18.347,17.417c-1.138-0.841-3.271-2.117-5.758-2.132 C29.806,19.785,27.708,21.567,26.937,22.336z" clip-rule="evenodd"/><path fill="#4e7ab5" d="M20,5l0.116,0c9.137,0.058,16.729,7.036,17.763,15.92c-1.273-0.786-3.118-1.623-5.214-1.635 c-2.726,0-4.789,1.508-5.782,2.412c-1.271-0.836-4.024-2.395-6.884-2.412c-2.828,0-5.578,1.553-6.872,2.405 c-0.977-0.912-3.003-2.405-5.794-2.405c-2.088,0-3.937,0.841-5.214,1.632C3.155,12.026,10.726,5.058,19.879,5L20,5 M20,4l-0.123,0 C9.441,4.066,1,12.547,1,23c0,0,2.835-2.715,6.334-2.715C10.831,20.285,13,23,13,23c0.209-0.16,3.611-2.715,7-2.715h0.041 C23.525,20.306,27,23,27,23s2.279-2.715,5.666-2.715h0.041C36.187,20.306,39,23,39,23l0-0.123C38.934,12.481,30.518,4.066,20.123,4 L20,4L20,4z"/><path fill="none" stroke="#4e7ab5" stroke-miterlimit="2" d="M13.214 22.036c0 0-1.829-13.316 6.107-17.643M27 22c0 0 .036-13.128-7.679-17.607"/><path fill="#676d69" fill-rule="evenodd" d="M24,35c0,1.105-0.895,2-2,2s-2-0.895-2-2h-1	c0,1.657,1.343,3,3,3s3-1.343,3-3H24z" clip-rule="evenodd"/></svg>