<svg xmlns="http://www.w3.org/2000/svg"  viewBox="0 0 64 64" width="64px" height="64px"><path fill="#898890" d="M55.53,25.19a11.136,11.136,0,0,1,6.45,10.54A11.011,11.011,0,0,1,52,45.95V46H50l-.39.1A10.988,10.988,0,0,0,39,38c-.35,0-.69.02-1.03.05a12.985,12.985,0,0,0-22.48.91A8.969,8.969,0,0,1,14,34v-.21c0-.1,0-.2.01-.3a9,9,0,0,1,13.01-7.54,12.994,12.994,0,0,1,8.53-7.48,9.321,9.321,0,0,1,1.19-.26A12.026,12.026,0,0,1,39,18a12.972,12.972,0,0,1,10.97,6.05A9.447,9.447,0,0,1,55.53,25.19Z"/><path fill="#e0e0e2" d="M49.61,46.1A10.685,10.685,0,0,1,50,49,11,11,0,0,1,40,59.95V60H16.85a15.155,15.155,0,0,1-10.7-4.43,8.994,8.994,0,0,1,8.87-15.62c.14-.34.3-.67.47-.99a12.985,12.985,0,0,1,22.48-.91c.34-.03.68-.05,1.03-.05A10.988,10.988,0,0,1,49.61,46.1Z"/><path fill="#ffda44" d="M36.74,18.21a9.321,9.321,0,0,0-1.19.26,12.994,12.994,0,0,0-8.53,7.48,9,9,0,0,0-13.01,7.54c-.01.1-.01.2-.01.3A14,14,0,1,1,36.74,18.21Z"/><path d="M38.724,16.5a1,1,0,0,0,.5-.134l3.464-2a1,1,0,0,0-1-1.732l-3.464,2a1,1,0,0,0,.5,1.866Z"/><path d="M32,10.144a1,1,0,0,0,1.366-.367l2-3.464a1,1,0,1,0-1.732-1l-2,3.464A1,1,0,0,0,32,10.144Z"/><path d="M24,8a1,1,0,0,0,1-1V3a1,1,0,0,0-2,0V7A1,1,0,0,0,24,8Z"/><path d="M14.634,9.777a1,1,0,1,0,1.732-1l-2-3.464a1,1,0,1,0-1.732,1Z"/><path d="M5.313,14.366l3.464,2a1,1,0,1,0,1-1.732l-3.464-2a1,1,0,0,0-1,1.732Z"/><path d="M3,25H7a1,1,0,0,0,0-2H3a1,1,0,0,0,0,2Z"/><path d="M4.947,35a1,1,0,0,0,1.366.366l3.464-2a1,1,0,1,0-1-1.732l-3.464,2A1,1,0,0,0,4.947,35Z"/><path d="M55.973,24.3a10.67,10.67,0,0,0-5.491-1.283,13.913,13.913,0,0,0-13.175-5.906A14.987,14.987,0,1,0,13.013,34.184,9.933,9.933,0,0,0,14.09,38.5,9.849,9.849,0,0,0,11,38,9.994,9.994,0,0,0,5.515,56.353,16.048,16.048,0,0,0,16.849,61H40a.922.922,0,0,0,.385-.084A11.917,11.917,0,0,0,50.819,47H52a.92.92,0,0,0,.384-.084A11.928,11.928,0,0,0,62.974,35.8,12.051,12.051,0,0,0,55.973,24.3ZM24,11a13.016,13.016,0,0,1,11.254,6.517,14.058,14.058,0,0,0-8.729,7.128A9.887,9.887,0,0,0,23,24a10.013,10.013,0,0,0-9.661,7.415A12.982,12.982,0,0,1,24,11ZM39.91,58.954A.858.858,0,0,0,39.7,59H16.849a14.067,14.067,0,0,1-10-4.137,1.07,1.07,0,0,0-.166-.134,7.992,7.992,0,0,1,7.883-13.88,1,1,0,0,0,1.368-.506A11.992,11.992,0,0,1,37.13,38.587a1,1,0,0,0,.936.46c.308-.028.619-.047.934-.047a10,10,0,0,1,.91,19.954ZM60.978,35.665a9.939,9.939,0,0,1-9.068,9.289A.948.948,0,0,0,51.7,45H50.3A12.01,12.01,0,0,0,39,37c-.173,0-.345,0-.516.013a13.988,13.988,0,0,0-22.914-.1A7.948,7.948,0,0,1,15,34c0-.151,0-.3.008-.453a8,8,0,0,1,11.568-6.7,1,1,0,0,0,1.365-.508,12.051,12.051,0,0,1,7.882-6.906A11.644,11.644,0,0,1,39,19a11.935,11.935,0,0,1,10.125,5.585,1,1,0,0,0,.933.461A8.442,8.442,0,0,1,55.1,26.093,10.061,10.061,0,0,1,60.978,35.665Z"/><path d="M13.674,42.638A5.913,5.913,0,0,0,11,42,5.995,5.995,0,0,0,7.768,53.047a1,1,0,0,0,1.081-1.683A3.995,3.995,0,0,1,11,44a3.932,3.932,0,0,1,1.778.426,1,1,0,0,0,.9-1.788Z"/><path d="M27,35a1,1,0,0,0,0,2,7.967,7.967,0,0,1,6.752,3.73,1,1,0,0,0,.846.465.988.988,0,0,0,.534-.156,1,1,0,0,0,.309-1.38A9.957,9.957,0,0,0,27,35Z"/><path d="M38,20a1,1,0,0,0,0,2,7.967,7.967,0,0,1,6.752,3.73,1,1,0,0,0,.846.465.988.988,0,0,0,.534-.156,1,1,0,0,0,.309-1.38A9.957,9.957,0,0,0,38,20Z"/></svg>