<svg xmlns="http://www.w3.org/2000/svg"  viewBox="0 0 64 64" width="64px" height="64px"><path fill="#c2cde7" d="M63,40c0,2.22-0.65,4.28-1.78,6c-1.96,3.01-5.36,5-9.22,5H17c-1.38,0-2.72-0.17-4-0.5 C6.1,48.72,1,42.46,1,35c0-7.76,5.53-14.23,12.87-15.69C16.32,11.04,23.94,5,33,5c11.05,0,20,8.95,20,20c0,1.38-0.16,2.73-0.43,4.03 C58.38,29.33,63,34.12,63,40z"/><path fill="#d6dff2" d="M17.82,15.601c0.999,1,2.598,1,3.498,0c0.1-0.1,0.1-0.1,0.2-0.2c5.297-6.4,14.791-7.2,21.087-1.9 c0.7,0.6,1.299,1.2,1.899,1.9c0.899,1.1,2.398,1.2,3.498,0.4c0.1-0.1,0.1-0.1,0.2-0.2l0,0c0.899-0.9,0.999-2.4,0.1-3.4 c-7.095-8.5-19.688-9.599-28.182-2.5c-0.899,0.8-1.699,1.6-2.498,2.5C16.821,13.201,16.921,14.701,17.82,15.601z"/><path fill="#acb7d0" d="M61.22,46c-1.96,3.01-5.36,5-9.22,5H13v-5H61.22z"/><path fill="#8d6c9f" d="M13.052,25c-0.017,0-0.033,0-0.05-0.001c-0.552-0.027-0.978-0.497-0.95-1.048 c0.08-1.611,0.369-3.268,0.859-4.925c0.157-0.528,0.714-0.832,1.243-0.675s0.831,0.714,0.675,1.243 c-0.445,1.504-0.708,3.003-0.779,4.454C14.023,24.584,13.581,25,13.052,25z"/><path fill="#8d6c9f" d="M52.571,30.028c-0.067,0-0.136-0.007-0.204-0.021c-0.541-0.112-0.889-0.643-0.776-1.183 C51.862,27.52,52,26.232,52,25c0-10.477-8.523-19-19-19c-8.327,0-15.799,5.591-18.171,13.595c-0.156,0.529-0.712,0.835-1.243,0.675 c-0.529-0.157-0.831-0.714-0.675-1.243C15.533,10.179,23.794,4,33,4c11.579,0,21,9.421,21,21c0,1.369-0.151,2.793-0.45,4.231 C53.451,29.704,53.035,30.028,52.571,30.028z"/><path fill="#8d6c9f" d="M52 52H17C7.626 52 0 44.374 0 35c0-8.087 5.751-15.098 13.676-16.67.539-.113 1.068.244 1.175.786.108.541-.244 1.067-.786 1.175C7.074 21.679 2 27.864 2 35c0 8.271 6.729 15 15 15h35c5.514 0 10-4.486 10-10 0-5.318-4.165-9.699-9.481-9.973l-.198-.013c-.682-.042-1.384.021-2.14.159-.547.108-1.065-.259-1.164-.803-.1-.543.26-1.064.803-1.164.922-.17 1.783-.251 2.634-.188l.168.01C59.002 28.357 64 33.616 64 40 64 46.617 58.617 52 52 52zM26.001 12.738c-.358 0-.706-.193-.885-.532-.259-.488-.072-1.094.416-1.352 3.244-1.714 7.074-2.262 10.666-1.534.541.11.892.638.782 1.179-.11.541-.642.892-1.179.782C34.881 11.095 33.938 11 33 11c-2.299 0-4.496.546-6.532 1.622C26.318 12.701 26.158 12.738 26.001 12.738zM41.999 14.036c-.209 0-.421-.065-.601-.201-.686-.517-1.278-.902-1.866-1.213-.488-.258-.675-.863-.416-1.352.259-.487.862-.676 1.352-.416.684.361 1.361.801 2.134 1.383.441.332.529.96.197 1.4C42.603 13.898 42.303 14.036 41.999 14.036z"/><path fill="#e3f2ff" d="M56,53c-0.336,0,0.338,0-3,0c1.657,0,3-1.343,3-3s-1.343-3-3-3c-0.444,0-9.561,0-15,0 c1.657,0,3-1.343,3-3s-1.343-3-3-3h2c1.657,0,3-1.343,3-3s-1.343-3-3-3c-0.763,0-6.744,0-14,0c1.657,0,3-1.343,3-3s-1.343-3-3-3 c-1.387,0-12.614,0-14,0c-1.657,0-3,1.343-3,3s1.343,3,3,3c0.43,0-5.001,0-3,0c-1.657,0-3,1.343-3,3s1.343,3,3,3 c-1.074,0,5.203,0,5,0c-1.657,0-3,1.343-3,3s1.343,3,3,3c-1.002,0-3.879,0-4,0c-1.657,0-3,1.343-3,3s1.343,3,3,3c0.326,0,2.64,0,5,0 c-1.657,0-3,1.343-3,3s1.343,3,3,3c1.386,0,39.613,0,41,0c1.657,0,3-1.343,3-3S57.657,53,56,53z"/><path fill="#ace3ff" d="M15,59c1.386,0,39.613,0,41,0c1.657,0,3-1.343,3-3s-1.343-3-3-3c-0.336,0-2.662,0-6,0H15 c-1.657,0-3,1.343-3,3S13.343,59,15,59z"/><path fill="#8d6c9f" d="M56,60H15c-2.206,0-4-1.794-4-4c0-0.728,0.195-1.411,0.537-2H10c-2.206,0-4-1.794-4-4s1.794-4,4-4 h0.537C10.195,45.411,10,44.728,10,44s0.195-1.411,0.537-2l-1.661-0.002C6.728,41.933,5,40.164,5,38 c0-1.906,1.341-3.506,3.128-3.904c0.125-0.059,0.264-0.093,0.41-0.096C8.195,33.411,8,32.729,8,32c0-2.206,1.794-4,4-4h14 c2.206,0,4,1.794,4,4c0,0.728-0.195,1.411-0.537,2H40c2.206,0,4,1.794,4,4c0,1.742-1.12,3.228-2.677,3.775 C41.75,42.412,42,43.177,42,44c0,0.728-0.195,1.411-0.537,2H53c2.206,0,4,1.794,4,4c0,0.738-0.201,1.431-0.552,2.025 C58.444,52.249,60,53.946,60,56C60,58.206,58.206,60,56,60z M15,54c-1.103,0-2,0.897-2,2s0.897,2,2,2h41c1.103,0,2-0.897,2-2 s-0.897-2-2-2h-3c-0.553,0-1-0.447-1-1s0.447-1,1-1c1.103,0,2-0.897,2-2s-0.897-2-2-2H38c-0.553,0-1-0.447-1-1s0.447-1,1-1 c1.103,0,2-0.897,2-2s-0.897-2-2-2c-0.553,0-1-0.447-1-1s0.447-1,1-1h2c1.103,0,2-0.897,2-2s-0.897-2-2-2H26c-0.553,0-1-0.447-1-1 s0.447-1,1-1c1.103,0,2-0.897,2-2s-0.897-2-2-2H12c-1.103,0-2,0.897-2,2s0.897,2,2,2h0.024c0.552,0,1,0.447,1,1s-0.448,1-1,1H9 c-1.103,0-2,0.897-2,2s0.897,2,2,2h5.005c0.552,0,1,0.447,1,1s-0.448,1-1,1C12.897,42,12,42.897,12,44s0.897,2,2,2 c0.553,0,1,0.447,1,1s-0.447,1-1,1h-4c-1.103,0-2,0.897-2,2s0.897,2,2,2h5c0.553,0,1,0.447,1,1S15.553,54,15,54z"/><path fill="#8d6c9f" d="M19 55c-.553 0-1-.447-1-1v-2c0-.553.447-1 1-1s1 .447 1 1v2C20 54.553 19.553 55 19 55zM24 55c-.553 0-1-.447-1-1v-2c0-.553.447-1 1-1s1 .447 1 1v2C25 54.553 24.553 55 24 55zM29 55c-.553 0-1-.447-1-1v-2c0-.553.447-1 1-1s1 .447 1 1v2C30 54.553 29.553 55 29 55zM34 55c-.553 0-1-.447-1-1v-2c0-.553.447-1 1-1s1 .447 1 1v2C35 54.553 34.553 55 34 55zM39 55c-.553 0-1-.447-1-1v-2c0-.553.447-1 1-1s1 .447 1 1v2C40 54.553 39.553 55 39 55zM44 55c-.553 0-1-.447-1-1v-2c0-.553.447-1 1-1s1 .447 1 1v2C45 54.553 44.553 55 44 55zM49 55c-.553 0-1-.447-1-1v-2c0-.553.447-1 1-1s1 .447 1 1v2C50 54.553 49.553 55 49 55zM40 42h-3c-.553 0-1-.447-1-1s.447-1 1-1h3c.553 0 1 .447 1 1S40.553 42 40 42zM17 48h-3c-.553 0-1-.447-1-1s.447-1 1-1h3c.553 0 1 .447 1 1S17.553 48 17 48zM40 48h-6c-.553 0-1-.447-1-1s.447-1 1-1h6c.553 0 1 .447 1 1S40.553 48 40 48zM30 48h-3c-.553 0-1-.447-1-1s.447-1 1-1h3c.553 0 1 .447 1 1S30.553 48 30 48zM16 36h-6c-.553 0-1-.447-1-1s.447-1 1-1h6c.553 0 1 .447 1 1S16.553 36 16 36zM17 42h-3c-.553 0-1-.447-1-1s.447-1 1-1h3c.553 0 1 .447 1 1S17.553 42 17 42zM23 42h-2c-.553 0-1-.447-1-1s.447-1 1-1h2c.553 0 1 .447 1 1S23.553 42 23 42z"/></svg>